<mxfile host="app.diagrams.net" agent="Mozilla/5.0 (Windows NT 10.0; Win64; x64) AppleWebKit/537.36 (KHTML, like Gecko) Chrome/127.0.0.0 Safari/537.36" version="24.7.7">
  <diagram id="Ht1M8jgEwFfnCIfOTk4-" name="Page-1">
    <mxGraphModel grid="1" page="1" gridSize="10" guides="1" tooltips="1" connect="1" arrows="1" fold="1" pageScale="1" pageWidth="1169" pageHeight="827" math="0" shadow="0">
      <root>
        <mxCell id="0" />
        <mxCell id="1" parent="0" />
        <mxCell id="5X-6L2BU3lYFhkxXd0e4-5" value="Amazon Bedrock&lt;div style=&quot;font-size: 14px;&quot;&gt;(Anthropic Claude 3)&lt;/div&gt;" style="sketch=0;outlineConnect=0;fontColor=#232F3E;gradientColor=none;fillColor=#01A88D;strokeColor=none;dashed=0;verticalLabelPosition=bottom;verticalAlign=top;align=center;html=1;fontSize=14;fontStyle=0;aspect=fixed;pointerEvents=1;shape=mxgraph.aws4.sagemaker_model;allowArrows=1;snapToPoint=1;" vertex="1" parent="1">
          <mxGeometry x="329" y="365" width="90" height="90" as="geometry" />
        </mxCell>
        <mxCell id="5X-6L2BU3lYFhkxXd0e4-12" style="edgeStyle=orthogonalEdgeStyle;rounded=0;orthogonalLoop=1;jettySize=auto;html=1;startArrow=classic;startFill=1;endArrow=none;endFill=0;" edge="1" parent="1" source="5X-6L2BU3lYFhkxXd0e4-6" target="5X-6L2BU3lYFhkxXd0e4-8">
          <mxGeometry relative="1" as="geometry">
            <Array as="points">
              <mxPoint x="669" y="434" />
              <mxPoint x="669" y="434" />
            </Array>
          </mxGeometry>
        </mxCell>
        <mxCell id="5X-6L2BU3lYFhkxXd0e4-14" style="edgeStyle=orthogonalEdgeStyle;rounded=0;orthogonalLoop=1;jettySize=auto;html=1;" edge="1" parent="1" source="5X-6L2BU3lYFhkxXd0e4-6" target="5X-6L2BU3lYFhkxXd0e4-5">
          <mxGeometry relative="1" as="geometry">
            <Array as="points">
              <mxPoint x="499" y="394" />
              <mxPoint x="499" y="394" />
            </Array>
          </mxGeometry>
        </mxCell>
        <mxCell id="5X-6L2BU3lYFhkxXd0e4-6" value="Streamlit App" style="image;aspect=fixed;html=1;points=[];align=center;fontSize=14;image=img/lib/azure2/app_services/App_Service_Domains.svg;allowArrows=1;snapToPoint=1;" vertex="1" parent="1">
          <mxGeometry x="527" y="362" width="116" height="93.82" as="geometry" />
        </mxCell>
        <mxCell id="5X-6L2BU3lYFhkxXd0e4-13" style="edgeStyle=orthogonalEdgeStyle;rounded=0;orthogonalLoop=1;jettySize=auto;html=1;" edge="1" parent="1" source="5X-6L2BU3lYFhkxXd0e4-8" target="5X-6L2BU3lYFhkxXd0e4-6">
          <mxGeometry relative="1" as="geometry">
            <Array as="points">
              <mxPoint x="729" y="394" />
              <mxPoint x="729" y="394" />
            </Array>
          </mxGeometry>
        </mxCell>
        <mxCell id="5X-6L2BU3lYFhkxXd0e4-8" value="User" style="sketch=0;outlineConnect=0;fontColor=#232F3E;gradientColor=none;fillColor=#232F3D;strokeColor=none;dashed=0;verticalLabelPosition=bottom;verticalAlign=top;align=center;html=1;fontSize=14;fontStyle=0;aspect=fixed;pointerEvents=1;shape=mxgraph.aws4.user;" vertex="1" parent="1">
          <mxGeometry x="751" y="365" width="90" height="90" as="geometry" />
        </mxCell>
        <mxCell id="5X-6L2BU3lYFhkxXd0e4-11" style="edgeStyle=orthogonalEdgeStyle;rounded=0;orthogonalLoop=1;jettySize=auto;html=1;entryX=0.017;entryY=0.767;entryDx=0;entryDy=0;entryPerimeter=0;" edge="1" parent="1" source="5X-6L2BU3lYFhkxXd0e4-5" target="5X-6L2BU3lYFhkxXd0e4-6">
          <mxGeometry relative="1" as="geometry">
            <Array as="points">
              <mxPoint x="449" y="434" />
              <mxPoint x="449" y="434" />
            </Array>
          </mxGeometry>
        </mxCell>
        <mxCell id="5X-6L2BU3lYFhkxXd0e4-15" value="2" style="ellipse;whiteSpace=wrap;html=1;aspect=fixed;fillColor=none;strokeColor=#d3d3d3;strokeWidth=2;fontSize=14;" vertex="1" parent="1">
          <mxGeometry x="457" y="337" width="35" height="35" as="geometry" />
        </mxCell>
        <mxCell id="5X-6L2BU3lYFhkxXd0e4-16" value="3" style="ellipse;whiteSpace=wrap;html=1;aspect=fixed;fillColor=none;strokeColor=#d3d3d3;strokeWidth=2;fontSize=14;" vertex="1" parent="1">
          <mxGeometry x="457" y="455" width="35" height="35" as="geometry" />
        </mxCell>
        <mxCell id="5X-6L2BU3lYFhkxXd0e4-17" value="1b" style="ellipse;whiteSpace=wrap;html=1;aspect=fixed;fillColor=none;strokeColor=#d3d3d3;strokeWidth=2;fontSize=14;" vertex="1" parent="1">
          <mxGeometry x="679" y="337" width="35" height="35" as="geometry" />
        </mxCell>
        <mxCell id="5X-6L2BU3lYFhkxXd0e4-18" value="1a" style="ellipse;whiteSpace=wrap;html=1;aspect=fixed;fillColor=none;strokeColor=#d3d3d3;strokeWidth=2;fontSize=14;" vertex="1" parent="1">
          <mxGeometry x="679" y="455" width="35" height="35" as="geometry" />
        </mxCell>
      </root>
    </mxGraphModel>
  </diagram>
</mxfile>
